<svg xmlns="http://www.w3.org/2000/svg" width="24" height="24" viewBox="0 0 24 24">
  <g fill="none" fill-rule="evenodd" transform="translate(-57 -324)">
    <rect width="1920" height="1440" fill="#FFF"/>
    <g fill="#5D6D77" transform="translate(57 324)">
      <path d="M22.5,3 L19.5,3 L19.5,0 L16.5,0 L16.5,3 L13.5,3 L13.5,0 L10.5,0 L10.5,3 L7.5,3 L7.5,0 L4.5,0 L4.5,3 L1.5,3 C0.6705,3 0,3.6705 0,4.5 L0,22.5 C0,23.3295 0.6705,24 1.5,24 L22.5,24 C23.3295,24 24,23.3295 24,22.5 L24,4.5 C24,3.6705 23.3295,3 22.5,3 Z M22,22 L2,22 L2,6.5 L22,6.5 L22,22 Z"/>
      <rect width="3.13" height="3" x="4.174" y="9"/>
      <rect width="3.13" height="3" x="8.348" y="9"/>
      <rect width="3.13" height="3" x="4.174" y="13"/>
      <rect width="3.13" height="3" x="4.174" y="17"/>
      <rect width="3.13" height="3" x="8.348" y="13"/>
      <rect width="3.13" height="3" x="8.348" y="17"/>
      <rect width="3.13" height="3" x="12.522" y="9"/>
      <rect width="3.13" height="3" x="16.696" y="9"/>
      <rect width="3.13" height="3" x="12.522" y="13"/>
      <rect width="3.13" height="3" x="12.522" y="17"/>
      <rect width="3.13" height="3" x="16.696" y="13"/>
      <rect width="3.13" height="3" x="16.696" y="17"/>
    </g>
  </g>
</svg>
