<svg xmlns="http://www.w3.org/2000/svg" width="16" height="15" viewBox="0 0 16 15">
  <g fill="#BBC0C4">
    <rect width="2" height="2" x="2.5" y="5"/>
    <rect width="2" height="2" x="5.5" y="5"/>
    <rect width="2" height="2" x="8.5" y="5"/>
    <rect width="2" height="2" x="11.5" y="5"/>
    <rect width="2" height="2" x="2.5" y="8"/>
    <rect width="2" height="2" x="5.5" y="8"/>
    <rect width="2" height="2" x="8.5" y="8"/>
    <rect width="2" height="2" x="11.5" y="8"/>
    <rect width="2" height="2" x="2.5" y="11"/>
    <rect width="2" height="2" x="5.5" y="11"/>
    <rect width="2" height="2" x="8.5" y="11"/>
    <rect width="2" height="2" x="11.5" y="11"/>
    <path d="M15.3333333,1.95652174 L12,1.95652174 L12,0.652173913 C12,0.291988207 11.7015232,2.20550136e-17 11.3333333,0 C10.9651435,-2.20550136e-17 10.6666667,0.291988207 10.6666667,0.652173913 L10.6666667,1.95652174 L5.33333333,1.95652174 L5.33333333,0.652173913 C5.33333333,0.291988207 5.0348565,2.20550136e-17 4.66666667,0 C4.29847683,-2.20550136e-17 4,0.291988207 4,0.652173913 L4,1.95652174 L0.666666667,1.95652174 C0.298476833,1.95652174 4.50902501e-17,2.24850995 0,2.60869565 L0,14.3478261 C4.50902501e-17,14.7080118 0.298476833,15 0.666666667,15 L15.3333333,15 C15.7015232,15 16,14.7080118 16,14.3478261 L16,2.60869565 C16,2.24850995 15.7015232,1.95652174 15.3333333,1.95652174 Z M15,14 L1,14 L1,4 L15,4 L15,14 Z"/>
  </g>
</svg>
