<svg xmlns="http://www.w3.org/2000/svg" width="16" height="16" viewBox="0 0 16 16">
  <path fill="#BBC0C4" d="M581,410 L567,410 C566.4,410 566,410.4 566,411 L566,425 C566,425.6 566.4,426 567,426 L581,426 C581.6,426 582,425.6 582,425 L582,411 C582,410.4 581.6,410 581,410 Z M574,423 C573.4,423 573,422.6 573,422 C573,421.4 573.4,421 574,421 C574.6,421 575,421.4 575,422 C575,422.6 574.6,423 574,423 Z M575.5,418.4 C575,418.7 575,418.8 575,419 L575,420 L573,420 L573,419 C573,417.7 573.8,417.1 574.4,416.7 C574.9,416.4 575,416.3 575,416 C575,415.4 574.6,415 574,415 C573.6,415 573.3,415.2 573.1,415.5 L572.6,416.4 L570.9,415.4 L571.4,414.5 C571.9,413.6 572.9,413 574,413 C575.7,413 577,414.3 577,416 C577,417.4 576.1,418 575.5,418.4 Z" transform="translate(-566 -410)"/>
</svg>
