<svg xmlns="http://www.w3.org/2000/svg" width="16" height="15" viewBox="0 0 16 15">
  <g fill="#BBC0C4">
    <rect width="1" height="4" x="7.5"/>
    <path d="M15.9811013,12.7229049 L14.6846266,6.42302914 C14.3854401,5.06613282 13.0889653,4 11.5930329,4 C9.79791396,4 8.70089684,5.64765981 8.50143919,5.93842331 L7.5041509,5.93842331 C7.30469324,5.64765981 6.20767612,4 4.4125572,4 C2.91662477,4 1.62014999,5.06613282 1.32096351,6.42302914 L0.0244887334,12.7229049 C-0.0752400955,13.401353 0.124217562,14.0798012 0.722590535,14.3705647 C1.32096351,14.7582494 2.01906531,14.6613282 2.61743828,14.2736435 L6.30740495,11.7536932 L9.5984563,11.7536932 L13.288423,14.3705647 C13.8867959,14.7582494 14.4851689,14.8551705 15.1832707,14.4674859 C15.7816437,14.0798012 16.0808302,13.401353 15.9811013,12.7229049 Z M6.00821846,8.84605827 L5.01093018,8.84605827 L5.01093018,9.81526993 L4.01364189,9.81526993 L4.01364189,8.84605827 L3.0163536,8.84605827 L3.0163536,7.87684662 L4.01364189,7.87684662 L4.01364189,6.90763496 L5.01093018,6.90763496 L5.01093018,7.87684662 L6.00821846,7.87684662 L6.00821846,8.84605827 Z M10.9946599,9.81526993 L9.99737162,9.81526993 L9.99737162,8.84605827 L10.9946599,8.84605827 L10.9946599,9.81526993 Z M10.9946599,6.90763496 L11.9919482,6.90763496 L11.9919482,7.87684662 L10.9946599,7.87684662 L10.9946599,6.90763496 Z M12.9892365,9.81526993 L11.9919482,9.81526993 L11.9919482,8.84605827 L12.9892365,8.84605827 L12.9892365,9.81526993 Z"/>
  </g>
</svg>
