<svg xmlns="http://www.w3.org/2000/svg" width="22" height="24" viewBox="0 0 22 24">
  <g fill="none" fill-rule="evenodd" transform="translate(-57 -259)">
    <rect width="1920" height="1440" fill="#FFF"/>
    <g transform="translate(56 259)">
      <rect width="24" height="24"/>
      <g fill="#5D6D77" fill-rule="nonzero" transform="translate(1)">
        <path d="M11.006 13C11.3607369 12.8557072 11.6800451 12.6363534 11.942 12.357 12.1181668 12.144044 12.2128116 11.8753521 12.209 11.599 12.2212768 11.3101502 12.0940425 11.0329878 11.867 10.854 11.6161918 10.6634588 11.3066896 10.5665404 10.992 10.58 10.6778387 10.5648618 10.3687054 10.663174 10.121 10.857 9.90051147 11.0388997 9.77769515 11.3133868 9.789 11.599 9.78726188 11.8672168 9.88082006 12.1273369 10.053 12.333 10.3220294 12.6177967 10.6463 12.8447521 11.006 13zM10.9 14.805C9.93 15.251 9.44466667 15.8176667 9.444 16.505 9.42662876 16.8582721 9.57896306 17.1986092 9.854 17.421 10.1793128 17.6557797 10.5754506 17.7715847 10.976 17.749 11.395538 17.7809965 11.812589 17.6610278 12.151 17.411 12.4097008 17.1883107 12.5531889 16.8601276 12.541 16.519 12.532221 16.1928953 12.3932046 15.88389 12.155 15.661 11.7832533 15.3127291 11.3599259 15.0239894 10.9 14.805z"/>
        <path d="M21.741,8.329 C19.961401,6.30364674 18.9861867,3.6960782 19,1 C19,0.44771525 18.5522847,4.47470979e-15 18,4.4408921e-15 L15,4.4408921e-15 C14.4477153,4.40707441e-15 14,0.44771525 14,1 C14,2.65685425 12.6568542,4 11,4 C9.34314575,4 8,2.65685425 8,1 C8,0.44771525 7.55228475,3.38176876e-17 7,0 L4,0 C3.44771525,-3.38176876e-17 3,0.44771525 3,1 C3.01381327,3.6960782 2.038599,6.30364674 0.259,8.329 C0.0924345248,8.51280349 0.000125305596,8.75195209 -1e-16,9 L-1e-16,23 C1.10223025e-17,23.5522847 0.44771525,24 1,24 L21,24 C21.5522847,24 22,23.5522847 22,23 L22,9 C21.9998747,8.75195209 21.9075655,8.51280349 21.741,8.329 Z M13.541,18.547 C12.8042465,19.0753587 11.9105904,19.3392974 11.005,19.296 C10.092996,19.3466081 9.18906328,19.1010695 8.428,18.596 C7.80534575,18.1350846 7.45383386,17.3937959 7.491,16.62 C7.48239849,16.0791726 7.64133183,15.548929 7.946,15.102 C8.32687025,14.5966509 8.82854517,14.1950359 9.405,13.934 C8.91260334,13.6469789 8.49198274,13.2516639 8.175,12.778 C7.92666988,12.3742968 7.79673455,11.9089551 7.8,11.435 C7.78782222,10.744694 8.12093826,10.0938422 8.688,9.7 C9.36761713,9.23197569 10.1816868,8.99913352 11.006,9.037 C11.8277796,8.99759976 12.6400468,9.22681777 13.32,9.69 C13.8889359,10.0926152 14.2185366,10.7533184 14.198,11.45 C14.2050083,11.9381429 14.0565115,12.4158544 13.774,12.814 C13.4122071,13.2766056 12.9429586,13.6439033 12.407,13.884 C13.0265827,14.1834587 13.5756503,14.6108521 14.018,15.138 C14.3346049,15.5482036 14.5062299,16.0518247 14.506,16.57 C14.5265417,17.3468268 14.1667012,18.0847985 13.542,18.547 L13.541,18.547 Z"/>
      </g>
    </g>
  </g>
</svg>
