<svg xmlns="http://www.w3.org/2000/svg" width="15" height="16" viewBox="0 0 15 16">
  <g fill="#BBC0C4">
    <path d="M7.50409091 8.66666667C7.74595698 8.57047149 7.96366714 8.4242356 8.14227273 8.238 8.26238646 8.09602931 8.32691697 7.91690141 8.32431818 7.73266667 8.33268873 7.54010012 8.24593808 7.35532519 8.09113636 7.236 7.92013079 7.10897253 7.70910653 7.04436025 7.49454545 7.05333333 7.28034457 7.04324123 7.06957188 7.10878269 6.90068182 7.238 6.75034873 7.35926649 6.66661033 7.54225786 6.67431818 7.73266667 6.6731331 7.91147785 6.73692277 8.08489124 6.85431818 8.222 7.03774733 8.41186445 7.25884094 8.56316806 7.50409091 8.66666667zM7.43181818 9.87C6.77045455 10.1673333 6.43954545 10.5451111 6.43909091 11.0033333 6.42724688 11.2388481 6.53111117 11.4657395 6.71863636 11.614 6.94044052 11.7705198 7.2105345 11.8477231 7.48363636 11.8326667 7.76968498 11.8539977 8.05403797 11.7740185 8.28477273 11.6073333 8.46115963 11.4588738 8.55899244 11.2400851 8.55068182 11.0126667 8.54469613 10.7952635 8.44991224 10.58926 8.2875 10.4406667 8.03403637 10.2084861 7.74540401 10.015993 7.43181818 9.87z"/>
    <path d="M14.8234091,5.55266667 C13.6100461,4.20243116 12.9451273,2.46405213 12.9545455,0.666666667 C12.9545455,0.298476833 12.6492851,2.98313986e-15 12.2727273,2.96059473e-15 L10.2272727,2.96059473e-15 C9.85071494,2.93804961e-15 9.54545455,0.298476833 9.54545455,0.666666667 C9.54545455,1.77123617 8.62967335,2.66666667 7.5,2.66666667 C6.37032665,2.66666667 5.45454545,1.77123617 5.45454545,0.666666667 C5.45454545,0.298476833 5.14928506,2.2545125e-17 4.77272727,0 L2.72727273,0 C2.35071494,-2.2545125e-17 2.04545455,0.298476833 2.04545455,0.666666667 C2.05487269,2.46405213 1.38995387,4.20243116 0.176590909,5.55266667 C0.0630235396,5.67520233 8.5435634e-05,5.83463473 -1e-16,6 L-1e-16,15.3333333 C-2.43029756e-17,15.7015232 0.305260398,16 0.681818182,16 L14.3181818,16 C14.6947396,16 15,15.7015232 15,15.3333333 L15,6 C14.9999146,5.83463473 14.9369765,5.67520233 14.8234091,5.55266667 Z M9.2325,12.3646667 C8.73016806,12.7169058 8.1208571,12.8928649 7.50340909,12.864 C6.88158817,12.8977387 6.26527042,12.7340463 5.74636364,12.3973333 C5.32182665,12.0900564 5.08215945,11.5958639 5.1075,11.08 C5.10163533,10.7194484 5.20999898,10.3659527 5.41772727,10.068 C5.67741153,9.73110058 6.01946261,9.46335724 6.4125,9.28933333 C6.076775,9.09798593 5.78998823,8.83444262 5.57386364,8.51866667 C5.40454765,8.24953122 5.31595537,7.9393034 5.31818182,7.62333333 C5.30987879,7.16312931 5.53700336,6.72922816 5.92363636,6.46666667 C6.38701168,6.15465046 6.94205915,5.99942234 7.50409091,6.02466667 C8.0643952,5.99839984 8.61821373,6.15121184 9.08181818,6.46 C9.469729,6.72841016 9.6944568,7.16887891 9.68045455,7.63333333 C9.68523295,7.95876196 9.58398511,8.27723629 9.39136364,8.54266667 C9.14468665,8.85107042 8.82474451,9.09593551 8.45931818,9.256 C8.88176091,9.45563913 9.25612518,9.74056806 9.55772727,10.092 C9.77359422,10.3654691 9.89061131,10.7012165 9.89045455,11.0466667 C9.90446027,11.5645512 9.65911448,12.0565323 9.23318182,12.3646667 L9.2325,12.3646667 Z"/>
  </g>
</svg>
