<svg xmlns="http://www.w3.org/2000/svg" width="16" height="16" viewBox="0 0 16 16">
  <path fill="#BBC0C4" fill-rule="evenodd" d="M64.7419355,372.290323 L60.8709677,372.290323 L60.8709677,369.967742 C60.8709677,369.884387 60.8307097,369.806194 60.7628387,369.757677 L57.2580645,367.254194 L57.2580645,365.580645 L59.8387097,365.580645 C59.9814194,365.580645 60.0967742,365.465032 60.0967742,365.322581 L60.0967742,363.258065 C60.0967742,363.115613 59.9814194,363 59.8387097,363 L57,363 C56.8572903,363 56.7419355,363.115613 56.7419355,363.258065 L56.7419355,367.254194 L53.2371613,369.757677 C53.1692903,369.806194 53.1290323,369.884387 53.1290323,369.967742 L53.1290323,372.290323 L49.2580645,372.290323 C49.1153548,372.290323 49,372.405935 49,372.548387 L49,378.741935 C49,378.884387 49.1153548,379 49.2580645,379 L55.7096774,379 L55.7096774,375.129032 C55.7096774,374.986581 55.8250323,374.870968 55.9677419,374.870968 L58.0322581,374.870968 C58.1749677,374.870968 58.2903226,374.986581 58.2903226,375.129032 L58.2903226,379 L64.7419355,379 C64.8846452,379 65,378.884387 65,378.741935 L65,372.548387 C65,372.405935 64.8846452,372.290323 64.7419355,372.290323 Z M53.3870968,376.419355 C53.3870968,376.561806 53.2717419,376.677419 53.1290323,376.677419 L51.3225806,376.677419 C51.179871,376.677419 51.0645161,376.561806 51.0645161,376.419355 L51.0645161,375.129032 C51.0645161,374.986581 51.179871,374.870968 51.3225806,374.870968 L53.1290323,374.870968 C53.2717419,374.870968 53.3870968,374.986581 53.3870968,375.129032 L53.3870968,376.419355 Z M58.2903226,372.290323 C58.2903226,372.432774 58.1749677,372.548387 58.0322581,372.548387 L55.9677419,372.548387 C55.8250323,372.548387 55.7096774,372.432774 55.7096774,372.290323 L55.7096774,371 C55.7096774,370.857548 55.8250323,370.741935 55.9677419,370.741935 L58.0322581,370.741935 C58.1749677,370.741935 58.2903226,370.857548 58.2903226,371 L58.2903226,372.290323 Z M62.9354839,376.419355 C62.9354839,376.561806 62.820129,376.677419 62.6774194,376.677419 L60.8709677,376.677419 C60.7282581,376.677419 60.6129032,376.561806 60.6129032,376.419355 L60.6129032,375.129032 C60.6129032,374.986581 60.7282581,374.870968 60.8709677,374.870968 L62.6774194,374.870968 C62.820129,374.870968 62.9354839,374.986581 62.9354839,375.129032 L62.9354839,376.419355 Z" transform="translate(-49 -363)"/>
</svg>
