<svg xmlns="http://www.w3.org/2000/svg" width="15" height="16" viewBox="0 0 15 16">
  <g fill="#BBC0C4">
    <path d="M3.66666667 7.33333333L11 7.33333333C13 7.33333333 14.6666667 5.66666667 14.6666667 3.66666667 14.6666667 1.66666667 13 0 11 0L3.66666667 0C1.66666667 0 0 1.66666667 0 3.66666667 0 5.66666667 1.66666667 7.33333333 3.66666667 7.33333333zM3.66666667 1.33333333C4.93333333 1.33333333 6 2.4 6 3.66666667 6 4.93333333 4.93333333 6 3.66666667 6 2.4 6 1.33333333 4.93333333 1.33333333 3.66666667 1.33333333 2.4 2.4 1.33333333 3.66666667 1.33333333zM11 8.66666667L3.66666667 8.66666667C1.66666667 8.66666667 0 10.3333333 0 12.3333333 0 14.3333333 1.66666667 16 3.66666667 16L11 16C13 16 14.6666667 14.3333333 14.6666667 12.3333333 14.6666667 10.3333333 13 8.66666667 11 8.66666667zM11 14.6666667C9.73333333 14.6666667 8.66666667 13.6 8.66666667 12.3333333 8.66666667 11.0666667 9.73333333 10 11 10 12.2666667 10 13.3333333 11.0666667 13.3333333 12.3333333 13.3333333 13.6 12.2666667 14.6666667 11 14.6666667z"/>
  </g>
</svg>
