<svg xmlns="http://www.w3.org/2000/svg" width="12" height="16" viewBox="0 0 12 16">
  <path fill="#BBC0C4" d="M53.4,590.282051 C53.4,588.469538 55.0119,587 57,587 C58.9881,587 60.6,588.469538 60.6,590.282051 L60.6,591.102564 C60.6,592.915077 58.9881,594.384615 57,594.384615 C55.0119,594.384615 53.4,592.915077 53.4,591.102564 L53.4,590.282051 Z M62.1428571,603 L51.8571429,603 C51.384,603 51,602.448615 51,601.769231 C51,598.371077 52.9191429,595.615385 55.2857143,595.615385 L58.7142857,595.615385 C61.0808571,595.615385 63,598.371077 63,601.769231 C63,602.448615 62.616,603 62.1428571,603 Z" transform="translate(-51 -587)"/>
</svg>
