<svg xmlns="http://www.w3.org/2000/svg" width="15" height="16" viewBox="0 0 15 16">
  <g fill="#BBC0C4">
    <path d="M13.5,7.36986301 C13.5681818,7.71232877 13.6363636,8.12328767 13.6363636,8.46575342 C13.6363636,9.42465753 13.4318182,10.3835616 13.0227273,11.2054795 C11.6590909,11.9589041 11.0454545,11.5479452 10.4318182,11.0684932 C10.0227273,10.7260274 9.40909091,10.3150685 8.65909091,10.5890411 C7.90909091,10.8630137 7.36363636,11.4794521 7.02272727,12.2328767 C6.75,12.9178082 6.68181818,13.8082192 6.81818182,14.630137 C5.45454545,14.4931507 4.22727273,13.8767123 3.34090909,12.9863014 C3.81818182,11.9589041 3.81818182,10.9315068 3.20454545,10.0410959 C3.06818182,9.76712329 2.86363636,9.56164384 2.65909091,9.35616438 C2.31818182,9.01369863 2.45454545,8.39726027 2.86363636,8.19178082 C3.40909091,7.91780822 4.02272727,7.64383562 4.43181818,7.09589041 C5.25,5.8630137 4.29545455,4.08219178 4.09090909,3.73972603 C4.02272727,3.67123288 3.95454545,3.60273973 3.88636364,3.46575342 C4.56818182,2.98630137 5.31818182,2.64383562 6.13636364,2.43835616 C6.20454545,1.89041096 6.34090909,1.4109589 6.54545455,1 C2.86363636,1.47945205 0,4.63013699 0,8.46575342 C0,12.6438356 3.34090909,16 7.5,16 C11.6590909,16 15,12.6438356 15,8.46575342 C15,7.64383562 14.8636364,6.82191781 14.5909091,6 C14.25,6.47945205 13.9090909,6.95890411 13.5,7.36986301 Z"/>
    <path d="M10.5,0 C8.75,0 7,1.26666667 7,3.33333333 C7,5.2 9.73,7.6 10.01,7.8 C10.15,7.93333333 10.29,8 10.5,8 C10.71,8 10.85,7.93333333 10.99,7.8 C11.27,7.6 14,5.2 14,3.33333333 C14,1.26666667 12.25,0 10.5,0 Z M10.5,4.66666667 C9.73,4.66666667 9.1,4.06666667 9.1,3.33333333 C9.1,2.6 9.73,2 10.5,2 C11.27,2 11.9,2.6 11.9,3.33333333 C11.9,4.06666667 11.27,4.66666667 10.5,4.66666667 Z"/>
  </g>
</svg>
