<svg xmlns="http://www.w3.org/2000/svg" width="16" height="16" viewBox="0 0 16 16">
  <g fill="#BBC0C4">
    <path d="M6.0952381,5.19125683 L9.65079365,5.19125683 C9.79098413,5.19125683 9.9047619,5.07864481 9.9047619,4.93989071 C9.9047619,3.96961749 9.10730159,3.18032787 8.12698413,3.18032787 L7.61904762,3.18032787 C6.63873016,3.18032787 5.84126984,3.96961749 5.84126984,4.93989071 C5.84126984,5.07864481 5.95504762,5.19125683 6.0952381,5.19125683 Z"/>
    <ellipse cx="7.873" cy="1.672" rx="1.016" ry="1.005"/>
    <path d="M4.06349206,7.20218579 C4.06349206,6.23191257 3.26603175,5.44262295 2.28571429,5.44262295 L1.77777778,5.44262295 C0.797460317,5.44262295 0,6.23191257 0,7.20218579 C0,7.34093989 0.113777778,7.45355191 0.253968254,7.45355191 L3.80952381,7.45355191 C3.94971429,7.45355191 4.06349206,7.34093989 4.06349206,7.20218579 Z"/>
    <ellipse cx="2.032" cy="3.934" rx="1.016" ry="1.005"/>
    <path d="M14.2222222,5.44262295 L13.7142857,5.44262295 C12.7339683,5.44262295 11.9365079,6.23191257 11.9365079,7.20218579 C11.9365079,7.34093989 12.0502857,7.45355191 12.1904762,7.45355191 L15.7460317,7.45355191 C15.8862222,7.45355191 16,7.34093989 16,7.20218579 C16,6.23191257 15.2025397,5.44262295 14.2222222,5.44262295 Z"/>
    <ellipse cx="13.968" cy="3.934" rx="1.016" ry="1.005"/>
    <path d="M7.87301587 11.726776C9.27339683 11.726776 10.4126984 10.5991475 10.4126984 9.21311475 10.4126984 7.82708197 9.27339683 6.69945355 7.87301587 6.69945355 6.47263492 6.69945355 5.33333333 7.82708197 5.33333333 9.21311475 5.33333333 10.5991475 6.47263492 11.726776 7.87301587 11.726776zM8.63492063 12.4808743L7.11111111 12.4808743C5.29066667 12.4808743 3.80952381 13.9468415 3.80952381 15.7486339 3.80952381 15.887388 3.92330159 16 4.06349206 16L11.6825397 16C11.8227302 16 11.9365079 15.887388 11.9365079 15.7486339 11.9365079 13.9468415 10.4553651 12.4808743 8.63492063 12.4808743z"/>
  </g>
</svg>
