<svg xmlns="http://www.w3.org/2000/svg" width="24" height="23" viewBox="0 0 24 23">
  <g fill="none" fill-rule="evenodd" transform="translate(-56 -198)">
    <rect width="1920" height="1440"/>
    <g transform="translate(56 197)">
      <rect width="24" height="24"/>
      <g fill="#5D6D77" fill-rule="nonzero" transform="translate(0 1)">
        <path d="M9.14285714,6.78688525 L14.4761905,6.78688525 C14.6864762,6.78688525 14.8571429,6.61796721 14.8571429,6.40983607 C14.8571429,4.95442623 13.6609524,3.7704918 12.1904762,3.7704918 L11.4285714,3.7704918 C9.95809524,3.7704918 8.76190476,4.95442623 8.76190476,6.40983607 C8.76190476,6.61796721 8.93257143,6.78688525 9.14285714,6.78688525 Z"/>
        <ellipse cx="11.81" cy="1.508" rx="1.524" ry="1.508"/>
        <path d="M6.0952381,9.80327869 C6.0952381,8.34786885 4.89904762,7.16393443 3.42857143,7.16393443 L2.66666667,7.16393443 C1.19619048,7.16393443 0,8.34786885 0,9.80327869 C0,10.0114098 0.170666667,10.1803279 0.380952381,10.1803279 L5.71428571,10.1803279 C5.92457143,10.1803279 6.0952381,10.0114098 6.0952381,9.80327869 Z"/>
        <ellipse cx="3.048" cy="4.902" rx="1.524" ry="1.508"/>
        <path d="M21.3333333,7.16393443 L20.5714286,7.16393443 C19.1009524,7.16393443 17.9047619,8.34786885 17.9047619,9.80327869 C17.9047619,10.0114098 18.0754286,10.1803279 18.2857143,10.1803279 L23.6190476,10.1803279 C23.8293333,10.1803279 24,10.0114098 24,9.80327869 C24,8.34786885 22.8038095,7.16393443 21.3333333,7.16393443 Z"/>
        <ellipse cx="20.952" cy="4.902" rx="1.524" ry="1.508"/>
        <path d="M11.8095238 16.5901639C13.9100952 16.5901639 15.6190476 14.8987213 15.6190476 12.8196721 15.6190476 10.740623 13.9100952 9.04918033 11.8095238 9.04918033 9.70895238 9.04918033 8 10.740623 8 12.8196721 8 14.8987213 9.70895238 16.5901639 11.8095238 16.5901639zM12.952381 17.7213115L10.6666667 17.7213115C7.936 17.7213115 5.71428571 19.9202623 5.71428571 22.6229508 5.71428571 22.831082 5.88495238 23 6.0952381 23L17.5238095 23C17.7340952 23 17.9047619 22.831082 17.9047619 22.6229508 17.9047619 19.9202623 15.6830476 17.7213115 12.952381 17.7213115z"/>
      </g>
    </g>
  </g>
</svg>
